<?xml version="1.0" encoding="UTF-8"?>
<!DOCTYPE svg PUBLIC "-//W3C//DTD SVG 1.1//EN" "http://www.w3.org/Graphics/SVG/1.1/DTD/svg11.dtd">
<svg xmlns="http://www.w3.org/2000/svg" version="1.1" viewBox="0 0 81 81" stroke="none">
	<rect width="100%" height="100%" fill="#ffffff"/>
	<path d="M20,20h7v1h-7z M29,20h1v1h-1z M31,20h1v1h-1z M33,20h1v2h-1z M38,20h3v1h-3z M42,20h3v1h-3z M48,20h5v1h-5z M54,20h7v1h-7z M20,21h1v6h-1z M26,21h1v6h-1z M35,21h1v5h-1z M36,21h1v1h-1z M38,21h1v1h-1z M40,21h1v3h-1z M42,21h1v1h-1z M46,21h2v1h-2z M49,21h1v1h-1z M52,21h1v3h-1z M54,21h1v6h-1z M60,21h1v6h-1z M22,22h3v3h-3z M28,22h1v6h-1z M30,22h1v5h-1z M48,22h1v2h-1z M56,22h3v3h-3z M34,23h1v1h-1z M38,23h2v1h-2z M41,23h1v3h-1z M42,23h1v1h-1z M44,23h1v6h-1z M46,23h1v4h-1z M31,24h1v2h-1z M36,24h1v1h-1z M39,24h1v1h-1z M43,24h1v1h-1z M45,24h1v2h-1z M49,24h3v1h-3z M34,25h1v3h-1z M40,25h1v7h-1z M47,25h1v1h-1z M52,25h1v3h-1z M21,26h5v1h-5z M32,26h1v1h-1z M36,26h1v1h-1z M38,26h1v1h-1z M42,26h1v3h-1z M48,26h1v2h-1z M50,26h1v2h-1z M55,26h5v1h-5z M29,27h1v3h-1z M33,27h1v1h-1z M41,27h1v1h-1z M20,28h1v3h-1z M22,28h5v1h-5z M32,28h1v5h-1z M35,28h1v1h-1z M37,28h1v1h-1z M45,28h3v1h-3z M49,28h1v1h-1z M54,28h5v1h-5z M23,29h1v1h-1z M25,29h1v1h-1z M27,29h1v1h-1z M30,29h2v2h-2z M34,29h1v2h-1z M39,29h1v1h-1z M43,29h1v1h-1z M50,29h3v1h-3z M54,29h1v1h-1z M56,29h1v3h-1z M58,29h1v1h-1z M24,30h1v3h-1z M26,30h1v1h-1z M28,30h1v4h-1z M33,30h1v2h-1z M35,30h1v1h-1z M37,30h2v1h-2z M42,30h1v1h-1z M47,30h1v2h-1z M49,30h2v1h-2z M52,30h2v2h-2z M55,30h1v2h-1z M21,31h2v1h-2z M25,31h1v3h-1z M27,31h1v2h-1z M29,31h1v1h-1z M31,31h1v1h-1z M39,31h1v2h-1z M41,31h1v1h-1z M43,31h1v1h-1z M46,31h1v1h-1z M48,31h1v1h-1z M50,31h2v1h-2z M54,31h1v1h-1z M57,31h1v2h-1z M59,31h1v1h-1z M26,32h1v1h-1z M30,32h1v1h-1z M34,32h1v1h-1z M37,32h1v1h-1z M44,32h2v2h-2z M49,32h1v3h-1z M51,32h2v1h-2z M58,32h1v2h-1z M22,33h2v1h-2z M29,33h1v2h-1z M31,33h1v3h-1z M36,33h1v1h-1z M38,33h1v1h-1z M40,33h3v1h-3z M46,33h3v1h-3z M50,33h1v1h-1z M52,33h2v1h-2z M56,33h1v3h-1z M60,33h1v1h-1z M20,34h1v1h-1z M23,34h1v2h-1z M26,34h2v1h-2z M32,34h1v2h-1z M34,34h1v3h-1z M39,34h1v4h-1z M47,34h1v1h-1z M53,34h1v1h-1z M59,34h1v1h-1z M25,35h1v1h-1z M27,35h2v2h-2z M30,35h1v2h-1z M35,35h2v1h-2z M40,35h3v1h-3z M50,35h1v1h-1z M52,35h1v3h-1z M54,35h1v1h-1z M57,35h1v2h-1z M20,36h1v5h-1z M21,36h2v1h-2z M26,36h1v1h-1z M29,36h1v1h-1z M33,36h1v2h-1z M35,36h1v1h-1z M37,36h2v2h-2z M42,36h1v1h-1z M44,36h4v1h-4z M49,36h1v3h-1z M53,36h1v1h-1z M55,36h1v2h-1z M58,36h2v1h-2z M22,37h2v1h-2z M25,37h1v1h-1z M27,37h1v2h-1z M31,37h2v1h-2z M36,37h1v1h-1z M40,37h2v2h-2z M43,37h2v1h-2z M46,37h1v1h-1z M50,37h2v1h-2z M54,37h1v1h-1z M56,37h1v7h-1z M59,37h2v1h-2z M21,38h1v3h-1z M24,38h1v1h-1z M26,38h1v1h-1z M28,38h2v1h-2z M32,38h1v2h-1z M35,38h1v2h-1z M37,38h1v2h-1z M44,38h2v1h-2z M47,38h1v1h-1z M58,38h1v1h-1z M23,39h1v1h-1z M34,39h1v2h-1z M38,39h1v1h-1z M41,39h2v1h-2z M51,39h1v1h-1z M25,40h2v1h-2z M28,40h3v1h-3z M41,40h1v1h-1z M43,40h1v2h-1z M46,40h2v1h-2z M53,40h1v1h-1z M55,40h1v4h-1z M57,40h1v4h-1z M58,40h1v1h-1z M60,40h1v2h-1z M22,41h1v2h-1z M24,41h1v4h-1z M27,41h2v1h-2z M33,41h1v3h-1z M35,41h1v3h-1z M38,41h1v3h-1z M39,41h1v1h-1z M42,41h1v4h-1z M44,41h1v2h-1z M48,41h2v1h-2z M51,41h1v1h-1z M54,41h1v1h-1z M59,41h1v1h-1z M20,42h1v2h-1z M25,42h2v1h-2z M28,42h1v1h-1z M31,42h2v1h-2z M34,42h1v2h-1z M37,42h1v1h-1z M40,42h2v1h-2z M45,42h3v1h-3z M49,42h1v1h-1z M52,42h2v1h-2z M21,43h1v3h-1z M23,43h1v3h-1z M36,43h1v1h-1z M41,43h1v1h-1z M43,43h1v3h-1z M46,43h1v3h-1z M53,43h2v1h-2z M59,43h1v3h-1z M60,43h1v1h-1z M25,44h2v1h-2z M28,44h3v1h-3z M37,44h1v1h-1z M40,44h1v1h-1z M44,44h2v1h-2z M47,44h1v1h-1z M49,44h1v1h-1z M27,45h1v3h-1z M31,45h3v2h-3z M34,45h1v1h-1z M38,45h2v1h-2z M41,45h1v3h-1z M48,45h1v2h-1z M50,45h2v1h-2z M53,45h2v1h-2z M56,45h1v3h-1z M57,45h1v1h-1z M60,45h1v1h-1z M25,46h2v1h-2z M36,46h1v1h-1z M38,46h1v1h-1z M40,46h1v1h-1z M44,46h2v1h-2z M47,46h1v7h-1z M49,46h1v1h-1z M52,46h1v5h-1z M53,46h1v1h-1z M20,47h4v1h-4z M25,47h1v1h-1z M30,47h1v2h-1z M32,47h3v1h-3z M39,47h1v1h-1z M43,47h1v2h-1z M50,47h2v2h-2z M54,47h2v1h-2z M57,47h1v3h-1z M60,47h1v1h-1z M21,48h1v2h-1z M23,48h1v1h-1z M26,48h1v1h-1z M28,48h2v1h-2z M34,48h1v1h-1z M36,48h3v1h-3z M40,48h1v1h-1z M44,48h2v1h-2z M48,48h1v9h-1z M49,48h1v3h-1z M55,48h1v2h-1z M58,48h2v1h-2z M20,49h1v4h-1z M22,49h1v3h-1z M24,49h2v2h-2z M28,49h1v1h-1z M31,49h1v1h-1z M33,49h1v1h-1z M35,49h1v1h-1z M41,49h1v1h-1z M46,49h1v2h-1z M50,49h1v1h-1z M53,49h1v4h-1z M56,49h1v8h-1z M60,49h1v1h-1z M23,50h1v1h-1z M26,50h2v1h-2z M30,50h1v1h-1z M32,50h1v1h-1z M36,50h1v2h-1z M40,50h1v1h-1z M42,50h1v1h-1z M44,50h1v1h-1z M54,50h1v3h-1z M59,50h1v1h-1z M27,51h2v1h-2z M33,51h2v2h-2z M41,51h1v1h-1z M43,51h1v1h-1z M50,51h1v1h-1z M55,51h1v2h-1z M57,51h1v3h-1z M23,52h2v1h-2z M26,52h2v1h-2z M30,52h3v1h-3z M35,52h1v3h-1z M37,52h2v1h-2z M42,52h1v1h-1z M44,52h3v1h-3z M49,52h1v1h-1z M52,52h1v6h-1z M58,52h1v1h-1z M28,53h1v1h-1z M30,53h1v2h-1z M32,53h1v3h-1z M33,53h1v1h-1z M39,53h2v1h-2z M43,53h1v1h-1z M45,53h1v1h-1z M50,53h2v1h-2z M60,53h1v1h-1z M20,54h7v1h-7z M29,54h1v2h-1z M31,54h1v2h-1z M38,54h1v1h-1z M40,54h1v3h-1z M42,54h1v1h-1z M47,54h1v3h-1z M49,54h1v1h-1z M51,54h1v2h-1z M54,54h1v1h-1z M58,54h2v1h-2z M20,55h1v6h-1z M26,55h1v6h-1z M28,55h1v4h-1z M34,55h1v1h-1z M36,55h1v4h-1z M39,55h1v1h-1z M46,55h1v3h-1z M50,55h1v1h-1z M59,55h1v1h-1z M22,56h3v3h-3z M30,56h1v1h-1z M33,56h1v1h-1z M38,56h1v1h-1z M41,56h4v1h-4z M53,56h1v4h-1z M54,56h2v1h-2z M57,56h2v1h-2z M60,56h1v2h-1z M39,57h1v1h-1z M41,57h1v3h-1z M43,57h3v1h-3z M50,57h1v2h-1z M55,57h1v2h-1z M59,57h1v1h-1z M29,58h1v1h-1z M31,58h1v1h-1z M34,58h1v1h-1z M37,58h1v2h-1z M42,58h1v3h-1z M47,58h2v2h-2z M49,58h1v1h-1z M51,58h1v1h-1z M54,58h1v1h-1z M56,58h1v3h-1z M58,58h1v1h-1z M30,59h1v1h-1z M35,59h1v1h-1z M39,59h2v2h-2z M43,59h1v1h-1z M52,59h1v1h-1z M57,59h1v1h-1z M59,59h1v1h-1z M21,60h5v1h-5z M28,60h1v1h-1z M31,60h1v1h-1z M33,60h2v1h-2z M38,60h1v1h-1z M44,60h2v1h-2z M47,60h1v1h-1z M49,60h1v1h-1z M51,60h1v1h-1z M54,60h2v1h-2z" fill="#000000"/>
</svg>
