<?xml version="1.0" encoding="UTF-8" standalone="no"?>
<!-- Created with Inkscape (http://www.inkscape.org/) -->

<svg
   width="63.625572mm"
   height="51.05373mm"
   viewBox="0 0 63.625574 51.053729"
   version="1.1"
   id="svg501"
   inkscape:version="1.1.1 (3bf5ae0d25, 2021-09-20)"
   sodipodi:docname="logo_kofi_2.svg"
   xmlns:inkscape="http://www.inkscape.org/namespaces/inkscape"
   xmlns:sodipodi="http://sodipodi.sourceforge.net/DTD/sodipodi-0.dtd"
   xmlns="http://www.w3.org/2000/svg"
   xmlns:svg="http://www.w3.org/2000/svg">
  <sodipodi:namedview
     id="namedview503"
     pagecolor="#505050"
     bordercolor="#eeeeee"
     borderopacity="1"
     inkscape:pageshadow="0"
     inkscape:pageopacity="0"
     inkscape:pagecheckerboard="0"
     inkscape:document-units="mm"
     showgrid="false"
     fit-margin-top="0"
     fit-margin-left="0"
     fit-margin-right="0"
     fit-margin-bottom="0"
     inkscape:zoom="2.1997092"
     inkscape:cx="184.34255"
     inkscape:cy="-15.683891"
     inkscape:window-width="1920"
     inkscape:window-height="1137"
     inkscape:window-x="-8"
     inkscape:window-y="-8"
     inkscape:window-maximized="1"
     inkscape:current-layer="layer1" />
  <defs
     id="defs498" />
  <g
     inkscape:label="Layer 1"
     inkscape:groupmode="layer"
     id="layer1"
     transform="translate(-130.56708,-25.94232)">
    <path
       id="path2737"
       style="fill:#ffffff;stroke-width:0.999999"
       d="m 148.87891,-16.46875 c -22.56023,0 -44.25881,0.183462 -61.712894,2.394531 C 72.461423,-12.198927 59.219806,-5.3125407 49.875,5.3183594 39.706635,16.893261 34.328125,32.459289 34.328125,50.337891 c 0,30.156698 1.204305,57.145499 15.978516,82.062499 16.687595,28.427 45.158922,44.08203 80.162109,44.08203 l -0.006,0.008 h 7.27149 c 45.64099,0 69.46847,-26.28707 79.60546,-41.95507 l 0.084,-0.12696 c 3.148,-4.966 5.80901,-10.00817 7.95703,-15.07617 28.77498,-7.026 49.42187,-32.874165 49.42187,-63.759764 v -3.636719 c 0,-18.100301 -6.10053,-33.920279 -17.64453,-45.7675782 C 245.79218,-5.4955323 229.62516,-12.667239 210.41016,-14.574219 195.96514,-16.018697 185.5929,-16.46875 148.87891,-16.46875 Z m 0,15.1992188 c 36.82802,0 46.37366,0.45625919 60.01367,1.81835932 C 240.95057,3.7292288 259.58984,23.50899 259.58984,51.929688 v 3.636718 c 0,26.374602 -19.32277,47.972234 -45.46875,50.240234 -2.04601,6.824 -5.22784,13.63889 -9.54882,20.46289 -10.00302,15.458 -30.00992,35.00977 -66.83789,35.00977 h -7.27344 c -30.01089,0 -53.198226,-12.95561 -67.066409,-36.59961 -12.278097,-20.685 -13.86914,-43.650945 -13.86914,-74.339846 h 0.0059 c 0,-30.2389 18.189296,-46.6033819 39.558594,-49.3339846 16.142775,-2.0463988 36.151065,-2.2753907 59.789065,-2.2753906 z m -0.006,17.0507812 c -24.77783,0 -42.5118,0.227031 -55.923831,2.273438 -18.866873,2.730599 -26.375,13.413011 -26.375,32.507812 h 0.0078 c 0,29.326904 1.817959,48.19422 11.365235,65.69922 10.909795,20.235 30.689336,27.96289 53.199216,27.96289 h 7.04493 c 29.55401,0 43.87893,-14.32423 51.83593,-26.82422 3.86502,-6.367 7.27381,-13.41125 9.0918,-22.281249 l 1.36133,-5.683594 h 8.18555 c 18.18901,0 33.87695,-14.773085 33.87695,-33.646485 v -3.408203 c 0,-21.141301 -13.18443,-32.285667 -36.15039,-35.009765 -12.95603,-1.1341 -20.68554,-1.589844 -57.51953,-1.589844 z m 57.30273,20.009766 c 11.594,0 17.96094,6.822819 17.96094,17.732422 0,10.909598 -6.36694,17.505859 -17.96094,17.505859 -3.63435,0 -5.68064,-2.043833 -5.68359,-4.771485 V 40.568359 c 0,-2.730599 2.04659,-4.777343 5.68359,-4.777343 z m -90.9414,1.591796 c 9.32575,0 15.91504,4.771988 20.23632,11.367188 4.776,-6.589002 11.1439,-11.367188 20.46289,-11.367188 15.68701,0 26.59571,12.957266 26.59571,27.509766 0,13.418498 -7.50036,25.011518 -17.27539,34.103516 -6.14,6.138006 -16.13795,12.505656 -22.96094,16.597656 -1.82498,1.135 -4.09228,1.81836 -6.82227,1.81836 -2.27489,0 -4.32099,-0.68336 -6.36718,-1.81836 -6.81702,-4.092 -16.82231,-10.45965 -23.18946,-16.597656 -9.547462,-9.098 -17.046872,-20.691318 -17.046872,-34.103516 h -0.0078 c 0,-14.5525 10.460354,-27.509765 26.375002,-27.509766 z"
       transform="matrix(0.26458333,0,0,0.26458333,121.48443,30.299677)" />
  </g>
</svg>
