<?xml version="1.0" encoding="UTF-8" standalone="no"?>
<!-- Created with Inkscape (http://www.inkscape.org/) -->

<svg
   width="13.74405mm"
   height="6.8961mm"
   viewBox="0 0 13.744051 6.8960999"
   version="1.1"
   id="svg501"
   inkscape:version="1.1.1 (3bf5ae0d25, 2021-09-20)"
   sodipodi:docname="logo_gxgames_2.svg"
   xmlns:inkscape="http://www.inkscape.org/namespaces/inkscape"
   xmlns:sodipodi="http://sodipodi.sourceforge.net/DTD/sodipodi-0.dtd"
   xmlns="http://www.w3.org/2000/svg"
   xmlns:svg="http://www.w3.org/2000/svg">
  <sodipodi:namedview
     id="namedview503"
     pagecolor="#505050"
     bordercolor="#eeeeee"
     borderopacity="1"
     inkscape:pageshadow="0"
     inkscape:pageopacity="0"
     inkscape:pagecheckerboard="0"
     inkscape:document-units="mm"
     showgrid="false"
     fit-margin-top="0"
     fit-margin-left="0"
     fit-margin-right="0"
     fit-margin-bottom="0"
     inkscape:zoom="8.7988368"
     inkscape:cx="23.923617"
     inkscape:cy="4.9438353"
     inkscape:window-width="1920"
     inkscape:window-height="1137"
     inkscape:window-x="-8"
     inkscape:window-y="-8"
     inkscape:window-maximized="1"
     inkscape:current-layer="layer1" />
  <defs
     id="defs498" />
  <g
     inkscape:label="Layer 1"
     inkscape:groupmode="layer"
     id="layer1"
     transform="translate(-137.1297,-41.24318)">
    <path
       fill="currentColor"
       fill-rule="evenodd"
       d="m 142.20652,47.920205 c -0.47625,0.14605 -0.95567,0.219075 -1.43827,0.219075 -0.69215,0 -1.31445,-0.147637 -1.8669,-0.442912 -0.55245,-0.295275 -0.98584,-0.70485 -1.30016,-1.228725 -0.31433,-0.523875 -0.47149,-1.116013 -0.47149,-1.776413 0,-0.6604 0.15716,-1.252537 0.47149,-1.776412 0.31432,-0.523875 0.75088,-0.93345 1.30968,-1.228725 0.5588,-0.295275 1.18745,-0.442913 1.88595,-0.442913 0.5842,0 1.11443,0.09842 1.59068,0.295275 0.47625,0.19685 0.87604,0.4826 1.19989,0.85725 l -0.9906,0.9144 c -0.47625,-0.50165 -1.05067,-0.752475 -1.72377,-0.752475 -0.42545,0 -0.80327,0.0889 -1.13347,0.2667 a 1.9134666,1.9134666 0 0 0 -0.77153,0.752475 c -0.18415,0.32385 -0.27622,0.695325 -0.27622,1.114425 0,0.41275 0.0921,0.78105 0.27622,1.1049 a 1.9534187,1.9534187 0 0 0 0.76677,0.757238 c 0.32702,0.180975 0.70008,0.271462 1.11918,0.271462 0.4445,0 0.84455,-0.09525 1.19989,-0.28575 v -1.952625 h 1.4097 v 2.7051 c -0.36195,0.27305 -0.78079,0.4826 -1.2573,0.62865 z m 5.27659,-2.2098 -1.58115,2.314575 h -1.77139 l 2.46698,-3.3909 -2.34315,-3.2766 h 1.7526 l 1.53352,2.162175 1.50495,-2.162175 h 1.66688 l -2.32463,3.21945 2.48603,3.44805 h -1.78118 l -1.60972,-2.314575 z"
       clip-rule="evenodd"
       id="path4542"
       style="fill:#ffffff;stroke-width:0.264583" />
  </g>
</svg>
