<?xml version="1.0" encoding="UTF-8" standalone="no"?>
<!-- Created with Inkscape (http://www.inkscape.org/) -->

<svg
   width="150.28333mm"
   height="132.32269mm"
   viewBox="0 0 150.28333 132.32269"
   version="1.1"
   id="svg5"
   inkscape:version="1.1.1 (3bf5ae0d25, 2021-09-20)"
   sodipodi:docname="logo_bsky.svg"
   xmlns:inkscape="http://www.inkscape.org/namespaces/inkscape"
   xmlns:sodipodi="http://sodipodi.sourceforge.net/DTD/sodipodi-0.dtd"
   xmlns="http://www.w3.org/2000/svg"
   xmlns:svg="http://www.w3.org/2000/svg">
  <sodipodi:namedview
     id="namedview7"
     pagecolor="#505050"
     bordercolor="#eeeeee"
     borderopacity="1"
     inkscape:pageshadow="0"
     inkscape:pageopacity="0"
     inkscape:pagecheckerboard="0"
     inkscape:document-units="mm"
     showgrid="false"
     inkscape:zoom="0.77771465"
     inkscape:cx="529.11438"
     inkscape:cy="157.51279"
     inkscape:window-width="1920"
     inkscape:window-height="1137"
     inkscape:window-x="-8"
     inkscape:window-y="-8"
     inkscape:window-maximized="1"
     inkscape:current-layer="g18"
     fit-margin-top="0"
     fit-margin-left="0"
     fit-margin-right="0"
     fit-margin-bottom="0" />
  <defs
     id="defs2" />
  <g
     inkscape:label="Layer 1"
     inkscape:groupmode="layer"
     id="layer1"
     transform="translate(-27.260396,-25.013909)">
    <g
       style="fill:none"
       id="g18"
       transform="matrix(0.26458333,0,0,0.26458333,-40.549139,-41.28602)">
      <path
         d="m 379.40901,284.24635 c 65.12,48.888 135.16,148.017 160.879,201.209 25.719,-53.192 95.759,-152.321 160.879,-201.209 46.987,-35.276 123.121,-62.57 123.121,24.282 0,17.346 -9.945,145.713 -15.778,166.555 -20.275,72.453 -94.155,90.933 -159.875,79.748 114.875,19.551 144.097,84.311 80.986,149.071 -119.86,122.992 -172.272,-30.859 -185.702,-70.281 -2.462,-7.227 -3.614,-10.608 -3.631,-7.733 -0.017,-2.875 -1.169,0.506 -3.631,7.733 -13.43,39.422 -65.842,193.273 -185.702,70.281 -63.111,-64.76 -33.889,-129.52 80.986,-149.071 -65.72,11.185 -139.6,-7.295 -159.875,-79.748 -5.833,-20.842 -15.778,-149.209 -15.778,-166.555 0,-86.852 76.134,-59.558 123.121,-24.282 z"
         fill="#1185fe"
         id="path9"
         style="fill:#ffffff" />
    </g>
  </g>
</svg>
