<?xml version="1.0" encoding="UTF-8" standalone="no"?>
<!-- Created with Inkscape (http://www.inkscape.org/) -->

<svg
   width="55.579037mm"
   height="43.00771mm"
   viewBox="0 0 55.579038 43.007709"
   version="1.1"
   id="svg501"
   inkscape:version="1.1.1 (3bf5ae0d25, 2021-09-20)"
   sodipodi:docname="logo_kofi.svg"
   xmlns:inkscape="http://www.inkscape.org/namespaces/inkscape"
   xmlns:sodipodi="http://sodipodi.sourceforge.net/DTD/sodipodi-0.dtd"
   xmlns="http://www.w3.org/2000/svg"
   xmlns:svg="http://www.w3.org/2000/svg">
  <sodipodi:namedview
     id="namedview503"
     pagecolor="#505050"
     bordercolor="#eeeeee"
     borderopacity="1"
     inkscape:pageshadow="0"
     inkscape:pageopacity="0"
     inkscape:pagecheckerboard="0"
     inkscape:document-units="mm"
     showgrid="false"
     fit-margin-top="0"
     fit-margin-left="0"
     fit-margin-right="0"
     fit-margin-bottom="0"
     inkscape:zoom="2.1997092"
     inkscape:cx="176.15965"
     inkscape:cy="139.3366"
     inkscape:window-width="1920"
     inkscape:window-height="1137"
     inkscape:window-x="-8"
     inkscape:window-y="-8"
     inkscape:window-maximized="1"
     inkscape:current-layer="layer1" />
  <defs
     id="defs498" />
  <g
     inkscape:label="Layer 1"
     inkscape:groupmode="layer"
     id="layer1"
     transform="translate(-121.48443,-30.299677)">
    <path
       id="path1460"
       style="stroke-width:0.999999;fill:#ffffff"
       d="m 114.54688,15.199219 c -23.637134,1.3e-5 -43.642799,0.22906 -59.785161,2.27539 -21.369298,2.730599 -39.558594,19.095085 -39.558594,49.333985 h -0.0078 c 0,30.688898 1.58909,53.654836 13.867188,74.339846 13.86822,23.64399 37.057437,36.59961 67.068359,36.59961 h 7.273438 c 36.82802,0 56.83491,-19.5518 66.83789,-35.00977 4.32102,-6.824 7.50086,-13.63888 9.54687,-20.46289 26.14602,-2.26798 45.46875,-23.865625 45.46875,-50.240234 v -3.636718 c 0,-28.420698 -18.63732,-48.200459 -50.69531,-51.38086 -13.63975,-1.362074 -23.18746,-1.818342 -60.01367,-1.818359 z M 114.53906,32.25 h 0.002 c 36.83399,0 44.56549,0.455744 57.52148,1.589844 22.966,2.724098 36.14844,13.868468 36.14844,35.009765 v 3.408203 c 0,18.873381 -15.68603,33.646488 -33.875,33.646488 h -8.18555 l -1.36328,5.68359 c -1.81803,8.87001 -5.22486,15.91426 -9.08984,22.28125 -7.95701,12.49998 -22.28196,26.82422 -51.83594,26.82422 h -7.046877 c -22.509921,0 -42.28747,-7.72788 -53.197265,-27.96289 C 34.069874,115.22545 32.25,96.35815 32.25,67.03125 h -0.0078 c 0,-19.094801 7.508089,-29.777213 26.375,-32.507812 C 72.029181,32.477016 89.761274,32.25 114.53906,32.25 Z m 57.30664,20.009766 c -3.637,0 -5.68164,2.046744 -5.68164,4.777343 v 25.691407 c 0.004,2.72666 2.04814,4.769531 5.68164,4.769531 11.59401,0 17.96289,-6.594308 17.96289,-17.503906 0,-10.909599 -6.36888,-17.734375 -17.96289,-17.734375 z m -90.93945,1.591796 c -15.91457,0 -26.375,12.957266 -26.375,27.509766 h 0.0059 c 0,13.412198 7.501326,25.005512 17.048829,34.103512 6.367067,6.138 16.370517,12.50566 23.1875,16.59766 2.046198,1.135 4.094205,1.82031 6.369141,1.82031 2.72999,0 4.99724,-0.68531 6.82226,-1.82031 6.823,-4.092 16.81899,-10.45966 22.95899,-16.59766 9.77499,-9.092 17.27734,-20.685014 17.27734,-34.103512 0,-14.5525 -10.9087,-27.509765 -26.5957,-27.509766 -9.31899,0 -15.68689,4.778186 -20.46289,11.367188 C 96.821255,58.62355 90.232045,53.851562 80.90625,53.851562 Z"
       transform="matrix(0.26458333,0,0,0.26458333,117.464,26.278217)" />
  </g>
</svg>
