<?xml version="1.0" encoding="UTF-8" standalone="no"?>
<!-- Created with Inkscape (http://www.inkscape.org/) -->

<svg
   width="222.35832mm"
   height="72.806992mm"
   viewBox="0 0 222.35832 72.806992"
   version="1.1"
   id="svg450"
   inkscape:version="1.1.1 (3bf5ae0d25, 2021-09-20)"
   sodipodi:docname="logo_bandcamp.svg"
   xmlns:inkscape="http://www.inkscape.org/namespaces/inkscape"
   xmlns:sodipodi="http://sodipodi.sourceforge.net/DTD/sodipodi-0.dtd"
   xmlns="http://www.w3.org/2000/svg"
   xmlns:svg="http://www.w3.org/2000/svg">
  <sodipodi:namedview
     id="namedview452"
     pagecolor="#505050"
     bordercolor="#eeeeee"
     borderopacity="1"
     inkscape:pageshadow="0"
     inkscape:pageopacity="0"
     inkscape:pagecheckerboard="0"
     inkscape:document-units="mm"
     showgrid="false"
     fit-margin-top="0"
     fit-margin-left="0"
     fit-margin-right="0"
     fit-margin-bottom="0"
     inkscape:zoom="0.77771465"
     inkscape:cx="458.39435"
     inkscape:cy="310.5252"
     inkscape:window-width="1284"
     inkscape:window-height="1081"
     inkscape:window-x="440"
     inkscape:window-y="82"
     inkscape:window-maximized="0"
     inkscape:current-layer="layer1" />
  <defs
     id="defs447" />
  <g
     inkscape:label="Layer 1"
     inkscape:groupmode="layer"
     id="layer1"
     transform="translate(8.0966888,-64.977942)">
    <g
       transform="matrix(0.03527778,0,0,-0.03527778,-8.0966888,137.78493)"
       id="g12"
       style="fill:#ffffff">
      <path
         id="path14"
         style="fill:#ffffff;fill-opacity:1;fill-rule:nonzero;stroke:none"
         d="m 4134.17,1289.93 c -262.99,0 -397.37,-207 -397.37,-518.821 0,-294.769 145.31,-516.019 397.37,-516.019 285.05,0 391.93,260.851 391.93,516.019 -0.2,266.421 -134.51,518.821 -392.01,518.821 m -698.72,773.89 h 312.39 v -748.37 h 5.53 c 84.96,141.71 263.06,229.62 422.03,229.62 446.64,0 663.2,-351.64 663.2,-779.75 C 4838.52,371.398 4646.72,0 4227.35,0 4035.53,0 3829.99,48.1016 3736.76,240.93 h -5.41 V 39.5508 H 3435.34 V 2063.78 l 0.03,0.04" />
      <path
         id="path16"
         style="fill:#ffffff;fill-opacity:1;fill-rule:nonzero;stroke:none"
         d="m 5990.69,1014.84 c -24.69,178.61 -150.72,275.06 -323.38,275.06 -161.76,0 -389.18,-87.93 -389.18,-533.029 0,-243.832 104.1,-501.871 375.47,-501.871 180.84,0 306.85,124.898 337.09,334.699 h 312.38 C 6245.49,209.809 6018.09,0 5653.6,0 c -443.99,0 -687.87,325.961 -687.87,756.871 0,442.229 232.95,788.109 698.83,788.109 328.84,0 608.45,-170.08 638.51,-530.14 h -311.89 -0.49" />
      <path
         id="path18"
         style="fill:#ffffff;fill-opacity:1;fill-rule:nonzero;stroke:none"
         d="M 2343.16,43.9688 H 0 L 1094.21,2063.82 H 3437.4 L 2343.16,43.9688" />
    </g>
  </g>
</svg>
